<?xml version="1.0" encoding="UTF-8" standalone="no"?>
<svg
   version="1.1"
   id="Layer_1"
   x="0px"
   y="0px"
   width="634px"
   height="650px"
   viewBox="0 0 634 650"
   enable-background="new 0 0 634 650"
   xml:space="preserve"
   sodipodi:docname="jacobprice_logo.svg"
   inkscape:version="1.2 (dc2aedaf03, 2022-05-15)"
   xmlns:inkscape="http://www.inkscape.org/namespaces/inkscape"
   xmlns:sodipodi="http://sodipodi.sourceforge.net/DTD/sodipodi-0.dtd"
   xmlns="http://www.w3.org/2000/svg"
   xmlns:svg="http://www.w3.org/2000/svg"
   xmlns:rdf="http://www.w3.org/1999/02/22-rdf-syntax-ns#"
   xmlns:cc="http://creativecommons.org/ns#"
   xmlns:dc="http://purl.org/dc/elements/1.1/"><metadata
   id="metadata68"><rdf:RDF><cc:Work
       rdf:about=""><dc:format>image/svg+xml</dc:format><dc:type
         rdf:resource="http://purl.org/dc/dcmitype/StillImage" /></cc:Work></rdf:RDF></metadata><defs
   id="defs66" /><sodipodi:namedview
   pagecolor="#ffffff"
   bordercolor="#666666"
   borderopacity="1"
   objecttolerance="10"
   gridtolerance="10"
   guidetolerance="10"
   inkscape:pageopacity="0"
   inkscape:pageshadow="2"
   inkscape:window-width="1920"
   inkscape:window-height="1011"
   id="namedview64"
   showgrid="false"
   inkscape:zoom="0.65461538"
   inkscape:cx="133.66628"
   inkscape:cy="386.48649"
   inkscape:window-x="0"
   inkscape:window-y="32"
   inkscape:window-maximized="1"
   inkscape:current-layer="Layer_1"
   inkscape:showpageshadow="0"
   inkscape:pagecheckerboard="0"
   inkscape:deskcolor="#d1d1d1" />
<path
   id="Symbol_1_"
   fill="#FFFFFF"
   d="M634,132.04v77.46c0,13.72-1.98,26.98-5.67,39.5c-13.35,45.279-49.049,80.98-94.33,94.33  c-12.52,3.689-25.779,5.67-39.5,5.67H429c-27.609,0-50-22.39-50-50c0-3.38,0.34-6.68,0.98-9.87c0.711-3.52,1.779-6.92,3.189-10.13  c0.061-0.16,0.131-0.31,0.201-0.46c5.52-12.29,15.84-21.93,28.59-26.55c0.01,0,0.02-0.01,0.029-0.01  C417.3,250.05,423.031,249,429,249h65.971c19.609-3.97,35.061-19.42,39.029-39.03v-70.94c-2.959-14.62-12.289-26.92-24.969-33.88  c-4.34-2.38-9.061-4.14-14.061-5.15H373.031c-5.012,1.01-9.74,2.77-14.08,5.16c-12.4,6.81-21.602,18.73-24.74,32.93  c-0.08,0.31-0.15,0.62-0.211,0.94V510.5c0,13.719-1.98,26.98-5.67,39.5c-13.35,45.279-49.05,80.98-94.33,94.33  c-12.52,3.689-25.779,5.67-39.5,5.67H50c-27.609,0-50-22.391-50-50c0-27.611,22.391-50,50-50h144.971  c19.549-3.971,35-19.311,39.02-38.83c0-0.02,0.01-0.041,0.01-0.061c0-0.01,0-0.01,0-0.01v-0.061c0-0.01,0-0.01,0-0.01V139.5  c0-13.72,1.98-26.98,5.67-39.5C253.02,54.72,288.721,19.02,334,5.67C346.519,1.98,359.781,0,373.5,0H494.46  c1.01,0,2.01,0.01,3.02,0.03c0.43,0.01,0.85,0.02,1.279,0.04c0.33,0.01,0.66,0.02,0.98,0.03c0.951,0.03,1.891,0.08,2.83,0.14  c0.67,0.03,1.34,0.07,2.01,0.12c0.711,0.05,1.42,0.11,2.131,0.17c0.49,0.04,0.98,0.09,1.459,0.14c0.721,0.07,1.441,0.14,2.16,0.22  c1.09,0.13,2.18,0.26,3.26,0.41c0.551,0.07,1.09,0.15,1.641,0.23c0.07,0.02,0.141,0.03,0.211,0.03c1.078,0.17,2.158,0.34,3.238,0.53  c1.121,0.2,2.24,0.41,3.352,0.63c4.059,0.8,8.049,1.79,11.969,2.95c0.701,0.21,1.4,0.42,2.1,0.64c0,0,0.012,0.01,0.021,0  c0.049,0.02,0.09,0.03,0.139,0.04c0.041,0.02,0.08,0.03,0.121,0.04c2.289,0.72,4.561,1.5,6.799,2.34c0.24,0.09,0.48,0.18,0.711,0.27  c0.52,0.2,1.039,0.4,1.561,0.6c0.17,0.06,0.34,0.13,0.51,0.2c0.17,0.07,0.34,0.14,0.51,0.2c0.85,0.34,1.699,0.69,2.549,1.05  l0.061,0.03l0.01,0.01l0.26,0.11c1.051,0.45,2.102,0.91,3.141,1.39c2.5,1.15,4.961,2.36,7.381,3.66c0.01,0,0.02,0.01,0.029,0.01  c0.01,0.01,0.02,0.02,0.041,0.02c0.43,0.23,0.859,0.46,1.279,0.7c0.049,0.03,0.109,0.06,0.17,0.09c0.07,0.04,0.15,0.08,0.23,0.12  c0.07,0.05,0.139,0.09,0.219,0.12c0.07,0.04,0.131,0.08,0.201,0.11c0.4,0.22,0.799,0.44,1.189,0.68  c0.061,0.03,0.131,0.07,0.189,0.11c0.01,0,0.021,0,0.031,0.01c0.17,0.1,0.35,0.2,0.52,0.3c0.32,0.18,0.641,0.37,0.959,0.56  c0.24,0.13,0.471,0.27,0.711,0.41c0.09,0.05,0.18,0.11,0.26,0.16c0.211,0.12,0.42,0.24,0.619,0.37c0.021,0.01,0.051,0.02,0.07,0.04  c0.01,0,0.021,0,0.031,0.01c0.01,0.01,0.029,0.02,0.039,0.03c0.061,0.03,0.121,0.07,0.18,0.1c0.01,0,0.01,0,0.01,0.01  c0.512,0.3,1.012,0.61,1.512,0.94c0.02,0.01,0.039,0.02,0.059,0.03c0.01,0.01,0.021,0.01,0.031,0.02c0.1,0.05,0.189,0.11,0.289,0.18  c0.01,0.01,0.02,0.01,0.029,0.02c0.012,0,0.012,0.01,0.021,0.01c1.09,0.69,2.15,1.38,3.219,2.11c0.021,0.02,0.051,0.02,0.07,0.04  c0.391,0.26,0.781,0.52,1.17,0.79c0.291,0.19,0.58,0.38,0.861,0.59c0.309,0.21,0.619,0.42,0.93,0.64l1.74,1.26  c0.199,0.14,0.41,0.29,0.609,0.44c0.189,0.14,0.391,0.28,0.58,0.43c0.199,0.15,0.391,0.29,0.58,0.44c0.391,0.29,0.77,0.59,1.16,0.88  c0.129,0.1,0.25,0.2,0.379,0.31c0.131,0.1,0.25,0.2,0.381,0.3c0.891,0.7,1.77,1.4,2.641,2.12c0.68,0.55,1.34,1.12,2.01,1.69  c0.1,0.08,0.199,0.16,0.299,0.25c0.08,0.07,0.15,0.13,0.23,0.21c0.359,0.31,0.721,0.63,1.08,0.94c0.039,0.04,0.09,0.08,0.131,0.11  c0.568,0.5,1.129,1.01,1.68,1.51c0.389,0.36,0.779,0.72,1.17,1.09c0.209,0.18,0.41,0.37,0.619,0.57c0.291,0.27,0.57,0.54,0.861,0.83  c0.27,0.25,0.539,0.51,0.809,0.78c0.221,0.21,0.441,0.42,0.65,0.64c0.16,0.15,0.32,0.31,0.49,0.48  c16.301,16.25,28.609,36.49,35.289,59.14C631.451,110.24,633.39,120.97,634,132.04z"
   style="fill:#f2f2f2;fill-opacity:1" />
<linearGradient
   id="Bottom_2_"
   gradientUnits="userSpaceOnUse"
   x1="231.3335"
   y1="580.5854"
   x2="1.9962"
   y2="580.5854">
	<stop
   offset="0"
   style="stop-color:#000000;stop-opacity:0.64705884;"
   id="stop51" />
	<stop
   offset="1"
   style="stop-color:#FFFFFF;stop-opacity:0"
   id="stop53" />
</linearGradient>
<path
   id="Bottom_1_"
   fill="url(#Bottom_2_)"
   d="M233.99,511.17C233.2,567.299,175.689,626.87,97.1,650H50c-27.609,0-50-22.391-50-50  c0-27.611,22.391-50,50-50h144.971C214.52,546.03,229.971,530.69,233.99,511.17z" />
<linearGradient
   id="Top_2_"
   gradientUnits="userSpaceOnUse"
   x1="410.3423"
   y1="41.5205"
   x2="578.3428"
   y2="330.8544">
	<stop
   offset="0"
   style="stop-color:#000000;stop-opacity:0.64564532;"
   id="stop57" />
	<stop
   offset="1"
   style="stop-color:#FFFFFF;stop-opacity:0"
   id="stop59" />
</linearGradient>
<path
   id="Top_1_"
   fill="url(#Top_2_)"
   d="M634,132.04v77.46c0,13.72-1.98,26.98-5.67,39.5c-13.35,45.279-49.049,80.98-94.33,94.33  c-12.52,3.689-25.779,5.67-39.5,5.67H429c-27.609,0-50-22.39-50-50c0-3.38,0.34-6.68,0.98-9.87c0.711-3.52,1.779-6.92,3.189-10.13  c0.061-0.16,0.131-0.31,0.201-0.46c5.52-12.29,15.84-21.93,28.59-26.55c0.01,0,0.02-0.01,0.029-0.01  C417.3,250.05,423.031,249,429,249h65.971c19.609-3.97,35.061-19.42,39.029-39.03v-70.94c-2.959-14.62-12.289-26.92-24.969-33.88  c-4.34-2.38-9.061-4.14-14.061-5.15H373.031c-5.012,1.01-9.74,2.77-14.08,5.16c-12.4,6.81-21.602,18.73-24.74,32.93  C338.41,85.51,399.429,26.38,475.3,0h19.16c1.01,0,2.01,0.01,3.02,0.03c0.43,0.01,0.85,0.02,1.279,0.04  c0.33,0.01,0.66,0.02,0.98,0.03c0.951,0.03,1.891,0.08,2.83,0.14c0.67,0.03,1.34,0.07,2.01,0.12c0.711,0.05,1.42,0.11,2.131,0.17  c0.49,0.04,0.98,0.09,1.459,0.14c0.721,0.07,1.441,0.14,2.16,0.22c1.09,0.13,2.18,0.26,3.26,0.41c0.551,0.07,1.09,0.15,1.641,0.23  c0.07,0.02,0.141,0.03,0.211,0.03c1.078,0.17,2.158,0.34,3.238,0.53c1.121,0.2,2.24,0.41,3.352,0.63  c4.059,0.8,8.049,1.79,11.969,2.95c0.701,0.21,1.4,0.42,2.1,0.64c0,0,0.012,0.01,0.021,0c0.049,0.02,0.09,0.03,0.139,0.04  c0.041,0.02,0.08,0.03,0.121,0.04c2.289,0.72,4.561,1.5,6.799,2.34c0.24,0.09,0.48,0.18,0.711,0.27c0.52,0.2,1.039,0.4,1.561,0.6  c0.17,0.06,0.34,0.13,0.51,0.2c0.17,0.07,0.34,0.14,0.51,0.2c0.85,0.34,1.699,0.69,2.549,1.05l0.061,0.03l0.01,0.01l0.26,0.11  c1.051,0.45,2.102,0.91,3.141,1.39c2.5,1.15,4.961,2.36,7.381,3.66c0.01,0,0.02,0.01,0.029,0.01c0.01,0.01,0.02,0.02,0.041,0.02  c0.43,0.23,0.859,0.46,1.279,0.7c0.049,0.03,0.109,0.06,0.17,0.09c0.07,0.04,0.15,0.08,0.23,0.12c0.07,0.05,0.139,0.09,0.219,0.12  c0.07,0.04,0.131,0.08,0.201,0.11c0.4,0.22,0.799,0.44,1.189,0.68c0.061,0.03,0.131,0.07,0.189,0.11c0.01,0,0.021,0,0.031,0.01  c0.17,0.1,0.35,0.2,0.52,0.3c0.32,0.18,0.641,0.37,0.959,0.56c0.24,0.13,0.471,0.27,0.711,0.41c0.09,0.05,0.18,0.11,0.26,0.16  c0.211,0.12,0.42,0.24,0.619,0.37c0.021,0.01,0.051,0.02,0.07,0.04c0.01,0,0.021,0,0.031,0.01c0.01,0.01,0.029,0.02,0.039,0.03  c0.061,0.03,0.121,0.07,0.18,0.1c0.01,0,0.01,0,0.01,0.01c0.512,0.3,1.012,0.61,1.512,0.94c0.02,0.01,0.039,0.02,0.059,0.03  c0.01,0.01,0.021,0.01,0.031,0.02c0.1,0.05,0.189,0.11,0.289,0.18c0.01,0.01,0.02,0.01,0.029,0.02c0.012,0,0.012,0.01,0.021,0.01  c1.09,0.69,2.15,1.38,3.219,2.11c0.021,0.02,0.051,0.02,0.07,0.04c0.391,0.26,0.781,0.52,1.17,0.79c0.291,0.19,0.58,0.38,0.861,0.59  c0.309,0.21,0.619,0.42,0.93,0.64l1.74,1.26c0.199,0.14,0.41,0.29,0.609,0.44c0.189,0.14,0.391,0.28,0.58,0.43  c0.199,0.15,0.391,0.29,0.58,0.44c0.391,0.29,0.77,0.59,1.16,0.88c0.129,0.1,0.25,0.2,0.379,0.31c0.131,0.1,0.25,0.2,0.381,0.3  c0.891,0.7,1.77,1.4,2.641,2.12c0.68,0.55,1.34,1.12,2.01,1.69c0.1,0.08,0.199,0.16,0.299,0.25c0.08,0.07,0.15,0.13,0.23,0.21  c0.359,0.31,0.721,0.63,1.08,0.94c0.039,0.04,0.09,0.08,0.131,0.11c0.568,0.5,1.129,1.01,1.68,1.51c0.389,0.36,0.779,0.72,1.17,1.09  c0.209,0.18,0.41,0.37,0.619,0.57c0.291,0.27,0.57,0.54,0.861,0.83c0.27,0.25,0.539,0.51,0.809,0.78  c0.221,0.21,0.441,0.42,0.65,0.64c0.16,0.15,0.32,0.31,0.49,0.48c16.301,16.25,28.609,36.49,35.289,59.14  C631.451,110.24,633.39,120.97,634,132.04z" />
</svg>
